<?xml version="1.0" encoding="UTF-8" standalone="no"?>
<!-- Created with Inkscape (http://www.inkscape.org/) -->

<svg
   width="1169.0498"
   height="557.59607"
   viewBox="0 0 309.31109 147.53062"
   version="1.1"
   id="svg1"
   inkscape:version="1.3.2 (091e20e, 2023-11-25, custom)"
   sodipodi:docname="fondo-footer.svg"
   inkscape:export-filename="fondo-footer.svg"
   inkscape:export-xdpi="50.040001"
   inkscape:export-ydpi="50.040001"
   xmlns:inkscape="http://www.inkscape.org/namespaces/inkscape"
   xmlns:sodipodi="http://sodipodi.sourceforge.net/DTD/sodipodi-0.dtd"
   xmlns="http://www.w3.org/2000/svg"
   xmlns:svg="http://www.w3.org/2000/svg">
  <sodipodi:namedview
     id="namedview1"
     pagecolor="#ffffff"
     bordercolor="#000000"
     borderopacity="0.25"
     inkscape:showpageshadow="false"
     inkscape:pageopacity="0.0"
     inkscape:pagecheckerboard="false"
     inkscape:deskcolor="#d1d1d1"
     inkscape:document-units="cm"
     inkscape:clip-to-page="false"
     inkscape:zoom="0.76702441"
     inkscape:cx="539.74814"
     inkscape:cy="372.21762"
     inkscape:window-width="1920"
     inkscape:window-height="1057"
     inkscape:window-x="-8"
     inkscape:window-y="-8"
     inkscape:window-maximized="1"
     inkscape:current-layer="layer1"
     borderlayer="true"
     showborder="true"
     shape-rendering="auto" />
  <defs
     id="defs1">
    <clipPath
       clipPathUnits="userSpaceOnUse"
       id="clipPath16">
      <path
         id="path17"
         style="fill:#ff0000;fill-opacity:1;fill-rule:nonzero;stroke:none;stroke-width:0.196484"
         d="M 33.354624,-4.7527162 V 315.66244 H 369.76328 V -4.7527162 Z M 227.50501,104.19153 c 1.30606,0.0631 2.60768,0.25817 3.89246,0.54762 0.62979,0.18266 1.26634,0.34421 1.88962,0.54801 3.47645,1.13672 6.72045,2.87309 9.78813,4.84533 0.70166,0.46964 1.41573,0.92138 2.10491,1.40916 3.20202,2.26628 6.15785,4.90249 8.55396,8.01516 1.00899,-3.00482 2.484,-5.96782 4.53333,-8.30836 0.61378,-0.70098 1.3654,-1.26786 2.04812,-1.9019 1.72751,-1.09367 2.56944,-1.82857 4.59396,-2.31636 2.25955,-0.54442 4.14541,-0.52825 6.36923,0.33157 0.97987,0.37885 1.84719,1.01816 2.68055,1.65783 0.53348,0.40948 0.92476,0.97621 1.38729,1.46442 1.1714,1.59142 2.23731,3.25684 3.21397,4.97504 1.06695,1.87397 2.0345,3.80296 2.75998,5.8381 0.79666,2.21806 1.55478,4.45204 2.15749,6.73188 0.65512,2.48115 1.19186,4.98859 1.62982,7.51744 0.32549,1.88833 0.67713,3.77277 1.02271,5.65735 0.3947,1.97943 0.87131,3.9513 0.98511,5.97435 0.0708,1.7462 0.0171,3.48896 -0.11513,5.23177 -0.0987,1.5064 -0.12183,3.01607 -0.24023,4.52143 -0.15887,1.8988 -0.3786,3.79364 -0.7702,5.66043 -0.49441,2.20163 -1.12762,4.36948 -1.99324,6.45673 -0.82815,2.10035 -1.71271,4.17874 -2.66059,6.228 -1.01168,2.09085 -2.06923,4.16185 -3.39472,6.07604 -1.00598,1.50985 -2.08281,2.96755 -3.10691,4.46464 -0.83676,1.24478 -1.66609,2.50013 -2.38889,3.81532 -0.99058,1.77998 -1.96267,3.5776 -3.13415,5.2475 -1.46264,2.112 -3.043,4.13647 -4.683,6.11365 -2.3415,2.75318 -4.80292,5.40483 -7.43108,7.88814 -2.494,2.3412 -4.93658,4.7587 -7.68437,6.80633 -1.00944,0.7383 -2.02066,1.52212 -3.08004,2.18934 -0.47871,0.3015 -0.9012,0.89552 -1.46557,0.85616 -1.47979,-0.10309 -2.39281,-0.15869 -3.44883,-0.22449 0.0786,0.53733 0.14309,1.07678 0.22948,1.61293 2.20098,13.65926 -9.77863,17.28355 -14.15452,6.98823 -4.63852,9.64039 -14.88538,6.75038 -14.2639,-4.22018 -1.28617,-1.62054 -0.99362,-3.77612 -0.92677,-5.61745 0.0912,-0.39492 0.16743,-0.79362 0.274,-1.18466 0.21718,-0.79687 0.5223,-1.57022 0.87996,-2.31943 -0.41527,-0.9312 -0.82465,-2.26545 -1.43449,-4.08242 -0.65573,-0.78658 -1.05831,-1.98374 -1.29672,-3.77733 -0.0169,-0.39761 -0.0491,-0.79475 -0.0506,-1.19272 -0.005,-1.4069 0.29778,-2.78386 0.55875,-4.15801 0.18588,-1.00845 0.39018,-2.02962 0.1654,-3.04973 -0.65181,-2.82841 -1.82872,-5.50017 -2.77419,-8.23621 -0.61537,-1.79002 -1.04598,-2.94923 -1.54386,-4.80772 -1.16956,-4.3658 -1.71167,-8.87204 -1.7081,-13.39008 0.033,-1.36683 0.0311,-2.73491 0.099,-4.10045 0.38111,-7.66588 1.60389,-15.29956 3.5252,-22.72537 0.79118,-2.76295 1.17328,-4.32176 2.15518,-6.95254 0.33479,-0.897 0.53476,-1.88097 1.10062,-2.6533 1.20036,-1.63837 2.09717,-4.41033 4.12693,-4.48229 1.5318,-0.0543 2.76762,-0.0497 3.87327,-0.0134 -0.0537,-0.0343 -0.10601,-0.0707 -0.15964,-0.10515 -1.96212,-0.46564 -3.95919,-0.80486 -5.88493,-1.40417 -0.50455,-0.15702 -1.06693,-0.21962 -1.4932,-0.53188 -1.4365,-1.05228 -2.68434,-2.34066 -4.02639,-3.511 0.59023,-1.62342 1.05008,-3.30994 1.54309,-4.98041 -0.46847,-1.86655 -0.42612,-3.42189 0.17384,-5.50463 0.24764,-0.85968 0.78313,-1.60866 1.17469,-2.41307 1.00318,-1.31635 1.15371,-1.64329 2.39848,-2.75576 1.70884,-1.52721 3.75057,-2.60374 5.86382,-3.45305 1.45554,-0.49718 2.07765,-0.76435 3.64301,-1.0515 1.30263,-0.23895 2.61288,-0.30792 3.91894,-0.24484 z m -1.69199,83.47731 c -0.17329,0.006 -0.34417,0.0312 -0.5104,0.0848 -0.24476,0.079 0.67711,-0.0504 0.35037,-0.0199 0.0557,-0.0189 0.10882,-0.0449 0.16425,-0.0645 -0.001,5e-5 -0.003,-3.9e-4 -0.004,-3.9e-4 z m -11.37036,27.83012 c 0.001,0.16333 -0.0169,0.32931 -0.0257,0.4939 0.006,-0.065 0.02,-0.12876 0.0253,-0.1938 1.5e-4,-0.10006 -4.5e-4,-0.40015 3.7e-4,-0.3001 z m 33.25761,0.51347 c -0.0268,0.0386 -0.0626,0.0733 -0.0875,0.11282 -0.0135,0.0215 0.0425,-0.0304 0.0549,-0.0526 0.0112,-0.0199 0.0215,-0.0403 0.0326,-0.0602 z" />
    </clipPath>
    <clipPath
       clipPathUnits="userSpaceOnUse"
       id="clipPath414">
      <rect
         style="display:inline;opacity:1;fill:#ffffff;fill-opacity:1;fill-rule:evenodd;stroke:#ffffff;stroke-width:0.606991;stroke-linecap:butt;stroke-dasharray:none;stroke-opacity:1"
         id="rect414"
         width="309.3111"
         height="147.53062"
         x="-99.636398"
         y="0.39844286" />
    </clipPath>
    <clipPath
       clipPathUnits="userSpaceOnUse"
       id="clipPath415">
      <rect
         style="display:inline;opacity:1;fill:#ffffff;fill-opacity:1;fill-rule:evenodd;stroke:#ffffff;stroke-width:0.606991;stroke-linecap:butt;stroke-dasharray:none;stroke-opacity:1"
         id="rect415"
         width="309.3111"
         height="147.53062"
         x="-99.636398"
         y="0.39844286" />
    </clipPath>
    <clipPath
       clipPathUnits="userSpaceOnUse"
       id="clipPath416">
      <rect
         style="display:inline;opacity:1;fill:#ffffff;fill-opacity:1;fill-rule:evenodd;stroke:#ffffff;stroke-width:0.606991;stroke-linecap:butt;stroke-dasharray:none;stroke-opacity:1"
         id="rect416"
         width="309.3111"
         height="147.53062"
         x="-99.636398"
         y="0.39844286" />
    </clipPath>
    <clipPath
       clipPathUnits="userSpaceOnUse"
       id="clipPath417">
      <rect
         style="display:inline;opacity:1;fill:#ffffff;fill-opacity:1;fill-rule:evenodd;stroke:#ffffff;stroke-width:0.606991;stroke-linecap:butt;stroke-dasharray:none;stroke-opacity:1"
         id="rect417"
         width="309.3111"
         height="147.53062"
         x="-99.636398"
         y="0.39844286" />
    </clipPath>
    <clipPath
       clipPathUnits="userSpaceOnUse"
       id="clipPath418">
      <rect
         style="display:inline;opacity:1;fill:#ffffff;fill-opacity:1;fill-rule:evenodd;stroke:#ffffff;stroke-width:0.606991;stroke-linecap:butt;stroke-dasharray:none;stroke-opacity:1"
         id="rect418"
         width="309.3111"
         height="147.53062"
         x="-99.636398"
         y="0.39844286" />
    </clipPath>
    <clipPath
       clipPathUnits="userSpaceOnUse"
       id="clipPath419">
      <rect
         style="display:inline;opacity:1;fill:#ffffff;fill-opacity:1;fill-rule:evenodd;stroke:#ffffff;stroke-width:0.606991;stroke-linecap:butt;stroke-dasharray:none;stroke-opacity:1"
         id="rect419"
         width="309.3111"
         height="147.53062"
         x="-99.636398"
         y="0.39844286" />
    </clipPath>
    <clipPath
       clipPathUnits="userSpaceOnUse"
       id="clipPath420">
      <rect
         style="display:inline;opacity:1;fill:#ffffff;fill-opacity:1;fill-rule:evenodd;stroke:#ffffff;stroke-width:0.606991;stroke-linecap:butt;stroke-dasharray:none;stroke-opacity:1"
         id="rect420"
         width="309.3111"
         height="147.53062"
         x="-99.636398"
         y="0.39844286" />
    </clipPath>
    <clipPath
       clipPathUnits="userSpaceOnUse"
       id="clipPath421">
      <rect
         style="display:inline;opacity:1;fill:#ffffff;fill-opacity:1;fill-rule:evenodd;stroke:#ffffff;stroke-width:0.606991;stroke-linecap:butt;stroke-dasharray:none;stroke-opacity:1"
         id="rect421"
         width="309.3111"
         height="147.53062"
         x="-99.636398"
         y="0.39844286" />
    </clipPath>
    <clipPath
       clipPathUnits="userSpaceOnUse"
       id="clipPath422">
      <rect
         style="display:inline;opacity:1;fill:#ffffff;fill-opacity:1;fill-rule:evenodd;stroke:#ffffff;stroke-width:0.606991;stroke-linecap:butt;stroke-dasharray:none;stroke-opacity:1"
         id="rect422"
         width="309.3111"
         height="147.53062"
         x="-99.636398"
         y="0.39844286" />
    </clipPath>
    <clipPath
       clipPathUnits="userSpaceOnUse"
       id="clipPath423">
      <rect
         style="display:inline;opacity:1;fill:#ffffff;fill-opacity:1;fill-rule:evenodd;stroke:#ffffff;stroke-width:0.606991;stroke-linecap:butt;stroke-dasharray:none;stroke-opacity:1"
         id="rect423"
         width="309.3111"
         height="147.53062"
         x="-99.636398"
         y="0.39844286" />
    </clipPath>
    <clipPath
       clipPathUnits="userSpaceOnUse"
       id="clipPath424">
      <rect
         style="display:inline;opacity:1;fill:#ffffff;fill-opacity:1;fill-rule:evenodd;stroke:#ffffff;stroke-width:0.606991;stroke-linecap:butt;stroke-dasharray:none;stroke-opacity:1"
         id="rect424"
         width="309.3111"
         height="147.53062"
         x="-99.636398"
         y="0.39844286" />
    </clipPath>
    <clipPath
       clipPathUnits="userSpaceOnUse"
       id="clipPath425">
      <rect
         style="display:inline;opacity:1;fill:#ffffff;fill-opacity:1;fill-rule:evenodd;stroke:#ffffff;stroke-width:0.606991;stroke-linecap:butt;stroke-dasharray:none;stroke-opacity:1"
         id="rect425"
         width="309.3111"
         height="147.53062"
         x="-99.636398"
         y="0.39844286" />
    </clipPath>
    <clipPath
       clipPathUnits="userSpaceOnUse"
       id="clipPath426">
      <rect
         style="display:inline;opacity:1;fill:#ffffff;fill-opacity:1;fill-rule:evenodd;stroke:#ffffff;stroke-width:0.606991;stroke-linecap:butt;stroke-dasharray:none;stroke-opacity:1"
         id="rect426"
         width="309.3111"
         height="147.53062"
         x="-99.636398"
         y="0.39844286" />
    </clipPath>
  </defs>
  <g
     inkscape:label="Capa 1"
     inkscape:groupmode="layer"
     id="layer1"
     style="display:inline;opacity:1"
     transform="translate(99.636398,-0.39844286)">
    <path
       style="fill:#ff9500;fill-opacity:0;fill-rule:evenodd;stroke:#ff9500;stroke-width:0.29999999;stroke-linecap:butt;stroke-dasharray:none;stroke-opacity:1"
       d="m -62.499224,159.24254 c 0,0 260.771254,-178.988073 285.191244,-66.891442 -7.50739,-134.891902 -328.57661,70.131292 -328.57661,70.131292"
       id="path21"
       sodipodi:nodetypes="ccc"
       clip-path="url(#clipPath426)" />
    <path
       style="fill:#ff9500;fill-opacity:0;fill-rule:evenodd;stroke:#ff9500;stroke-width:0.29999999;stroke-linecap:butt;stroke-dasharray:none;stroke-opacity:1"
       d="m -63.27673,177.59701 c 0,0 269.8652,-182.2809384 285.96357,-84.227155 C 209.51543,8.9753055 -63.641986,196.64689 -63.641986,196.64689"
       id="path22"
       sodipodi:nodetypes="ccc"
       clip-path="url(#clipPath425)" />
    <path
       style="fill:#ff9500;fill-opacity:0;fill-rule:evenodd;stroke:#ff9500;stroke-width:0.29999999;stroke-linecap:butt;stroke-dasharray:none;stroke-opacity:1"
       d="M 222.71075,93.377551 C 215.63722,26.057042 -62.706943,210.93262 -62.706943,210.93262"
       id="path23"
       sodipodi:nodetypes="cc"
       clip-path="url(#clipPath424)" />
    <path
       style="fill:#ff9500;fill-opacity:0;fill-rule:evenodd;stroke:#ff9500;stroke-width:0.29999999;stroke-linecap:butt;stroke-dasharray:none;stroke-opacity:1"
       d="M 219.55266,-44.698314 C 220.52832,182.14253 151.74432,247.99955 151.74432,247.99955"
       id="path24-3-7-4-7"
       clip-path="url(#clipPath423)" />
    <path
       style="fill:#ff9500;fill-opacity:0;fill-rule:evenodd;stroke:#ff9500;stroke-width:0.29999999;stroke-linecap:butt;stroke-dasharray:none;stroke-opacity:1"
       d="M 226.43272,-40.801581 C 227.40838,186.03926 158.62438,251.89628 158.62438,251.89628"
       id="path24-3-7-4-7-1"
       clip-path="url(#clipPath422)" />
    <path
       style="fill:#ff9500;fill-opacity:0;fill-rule:evenodd;stroke:#ff9500;stroke-width:0.29999999;stroke-linecap:butt;stroke-dasharray:none;stroke-opacity:1"
       d="M 205.16168,-44.698314 C 206.13734,182.14253 137.35334,247.99955 137.35334,247.99955"
       id="path42"
       clip-path="url(#clipPath421)" />
    <path
       style="fill:#ff9500;fill-opacity:0;fill-rule:evenodd;stroke:#ff9500;stroke-width:0.29999999;stroke-linecap:butt;stroke-dasharray:none;stroke-opacity:1"
       d="M 212.04174,-40.801581 C 213.0174,186.03926 144.2334,251.89628 144.2334,251.89628"
       id="path43"
       clip-path="url(#clipPath420)" />
    <path
       style="fill:#ff9500;fill-opacity:0;fill-rule:evenodd;stroke:#ff9500;stroke-width:0.29999999;stroke-linecap:butt;stroke-dasharray:none;stroke-opacity:1"
       d="M 190.28287,-44.698314 C 191.25853,182.14253 122.47453,247.99955 122.47453,247.99955"
       id="path44"
       clip-path="url(#clipPath419)" />
    <path
       style="fill:#ff9500;fill-opacity:0;fill-rule:evenodd;stroke:#ff9500;stroke-width:0.29999999;stroke-linecap:butt;stroke-dasharray:none;stroke-opacity:1"
       d="M 197.16293,-40.801581 C 198.13859,186.03926 129.35459,251.89628 129.35459,251.89628"
       id="path45"
       clip-path="url(#clipPath418)" />
    <path
       style="fill:#ff9500;fill-opacity:0;fill-rule:evenodd;stroke:#ff9500;stroke-width:0.29999999;stroke-linecap:butt;stroke-dasharray:none;stroke-opacity:1"
       d="M 175.64798,-44.698314 C 176.62364,182.14253 107.83964,247.99955 107.83964,247.99955"
       id="path46"
       clip-path="url(#clipPath417)" />
    <path
       style="fill:#ff9500;fill-opacity:0;fill-rule:evenodd;stroke:#ff9500;stroke-width:0.29999999;stroke-linecap:butt;stroke-dasharray:none;stroke-opacity:1"
       d="M 182.52804,-40.801581 C 183.5037,186.03926 114.7197,251.89628 114.7197,251.89628"
       id="path47"
       clip-path="url(#clipPath416)" />
    <path
       style="fill:#ff9500;fill-opacity:0;fill-rule:evenodd;stroke:#ff9500;stroke-width:0.29999999;stroke-linecap:butt;stroke-dasharray:none;stroke-opacity:1"
       d="M 160.52526,-44.698314 C 161.50092,182.14253 92.716918,247.99955 92.716918,247.99955"
       id="path48"
       clip-path="url(#clipPath415)" />
    <path
       style="fill:#ff9500;fill-opacity:0;fill-rule:evenodd;stroke:#ff9500;stroke-width:0.29999999;stroke-linecap:butt;stroke-dasharray:none;stroke-opacity:1"
       d="M 167.40532,-40.801581 C 168.38098,186.03926 99.596978,251.89628 99.596978,251.89628"
       id="path49"
       clip-path="url(#clipPath414)" />
  </g>
</svg>
